<?xml version="1.0" standalone="no"?><!DOCTYPE svg PUBLIC "-//W3C//DTD SVG 1.1//EN" "http://www.w3.org/Graphics/SVG/1.1/DTD/svg11.dtd"><svg t="1567067294318" class="icon" viewBox="0 0 1024 1024" version="1.1" xmlns="http://www.w3.org/2000/svg" p-id="4444" xmlns:xlink="http://www.w3.org/1999/xlink" width="24" height="24"><defs><style type="text/css"></style></defs><path d="M597.354667 507.626667c78.976-33.322667 134.4-111.466667 134.4-202.56C731.754667 183.722667 633.365333 85.333333 512 85.333333c-121.365333 0-219.754667 98.389333-219.754667 219.754667 0 91.093333 55.424 169.237333 134.4 202.56C225.045333 547.498667 72.490667 725.546667 72.490667 938.666667l36.117333 0c0-222.421333 180.949333-403.370667 403.370667-403.370667S915.370667 716.245333 915.370667 938.666667l36.117333 0C951.509333 725.546667 798.954667 547.498667 597.354667 507.626667zM328.384 305.088c0-101.248 82.368-183.637333 183.637333-183.637333s183.637333 82.368 183.637333 183.637333c0 101.248-82.368 183.637333-183.637333 183.637333S328.384 406.336 328.384 305.088z" p-id="4445" fill="#ffffff"></path></svg>