<?xml version="1.0" standalone="no"?><!DOCTYPE svg PUBLIC "-//W3C//DTD SVG 1.1//EN" "http://www.w3.org/Graphics/SVG/1.1/DTD/svg11.dtd"><svg t="1567145929119" class="icon" viewBox="0 0 1024 1024" version="1.1" xmlns="http://www.w3.org/2000/svg" p-id="10135" xmlns:xlink="http://www.w3.org/1999/xlink" width="24" height="24"><defs><style type="text/css"></style></defs><path d="M940.704 416.064c-32.192-98.368-227.68-109.92-244.672-110.72l-1.184-3.68c0 0-79.264-198.08-187.424-198.08-99.552 0-172.64 167.744-183.68 194.528L321.12 301.76c-16.896 1.088-212.48 15.936-244.64 114.304-34.176 104.608 125.376 236.064 130.112 239.776-0.608 2.24-53.056 205.984 34.208 268.928 87.264 62.976 265.952-49.792 267.872-50.976 1.888 1.184 180.608 113.952 267.84 50.976 87.744-63.328 34.176-268.96 34.176-268.96l0-0.096C814.976 652.48 976.064 524.224 940.704 416.064z" p-id="10136" fill="#ffffff"></path><path d="M206.624 655.84 206.56 655.808 206.624 655.84Z" p-id="10137" fill="#ffffff"></path></svg>