<?xml version="1.0" standalone="no"?><!DOCTYPE svg PUBLIC "-//W3C//DTD SVG 1.1//EN" "http://www.w3.org/Graphics/SVG/1.1/DTD/svg11.dtd"><svg t="1567067595615" class="icon" viewBox="0 0 1024 1024" version="1.1" xmlns="http://www.w3.org/2000/svg" p-id="13773" xmlns:xlink="http://www.w3.org/1999/xlink" width="24" height="24"><defs><style type="text/css"></style></defs><path d="M174 924.3h-18c-26 0-48.2-10-64.2-29-14.7-17.5-22.8-41.6-22.8-68 0-0.9 0-1.8 0.1-2.7v-0.2c0-0.8-0.1-1.5-0.1-2.1v-380c0-5.5 4.5-10 10-10s10 4.5 10 10v380c0 0.5 0 1 0.1 1.4v3.6c0 45.3 27.6 77 67 77h18c5.5 0 10 4.5 10 10s-4.6 10-10.1 10z m-95-603c-5.5 0-10-4.5-10-10v-58.5c0-22.1 17.9-40 40-40h113c5.5 0 10 4.5 10 10s-4.5 10-10 10H109c-11 0-20 9-20 20v58.5c0 5.5-4.5 10-10 10z" fill="#ffffff" p-id="13774"></path><path d="M80 377.3m-16 0a16 16 0 1 0 32 0 16 16 0 1 0-32 0Z" fill="#ffffff" p-id="13775"></path><path d="M234 419.3h-20V132.8c0-22.1 17.9-40 40-40h490.5c86.8 0 157.5 70.7 157.5 157.5v75h-20v-75c0-75.8-61.7-137.5-137.5-137.5H254c-11 0-20 9-20 20v286.5z" fill="#ffffff" p-id="13776"></path><path d="M646 241.3H314c-5.5 0-10-4.5-10-10s4.5-10 10-10h332c5.5 0 10 4.5 10 10s-4.5 10-10 10zM458 329.3H314c-5.5 0-10-4.5-10-10s4.5-10 10-10h144c5.5 0 10 4.5 10 10s-4.5 10-10 10zM901 269.2l-15.7-10.7c-10.5-7.2-37.8-11.8-62-15.8-16.2-2.7-31.5-5.3-43.4-8.7-7.1-2-26-7.5-26-22.3 0-8.1 2.1-16.9 4.4-26.3 6.2-26 12.7-52.9-19.4-74.4l-27.2-18.3h32.8c42 0 81.4 16.4 110.9 46.2 29.4 29.7 45.6 69.2 45.6 111.3v19z m-127-59c1.4 1 5.5 3.2 16.3 5.9 10.2 2.5 22.9 4.7 36.3 6.9 19.8 3.3 38.9 6.5 53.4 11.3-6.8-59.1-51-106.9-108-118.7 17.5 25.5 10.6 54.1 5.7 74.6-1.7 7.4-3.4 14.5-3.7 20zM920 925.3h-62c-5.5 0-10-4.5-10-10s4.5-10 10-10h62c11 0 20-9 20-20v-526c0-11-9-20-20-20H592.7c-13.5 0-40.6 27.4-60.5 47.4-28.6 28.9-47 46.6-63.5 46.6H177c-11 0-20 9-20 20v432c0 11 9 20 20 20h533.5c5.5 0 10 4.5 10 10s-4.5 10-10 10H177c-22.1 0-40-17.9-40-40v-432c0-22.1 17.9-40 40-40h291.7c1.2 0 6.2-0.8 18.5-11.1 9.3-7.8 19.8-18.4 30.9-29.5 27.2-27.4 52.8-53.3 74.7-53.3H920c22.1 0 40 17.9 40 40v526c0 21.9-17.9 39.9-40 39.9z" fill="#ffffff" p-id="13777"></path><path d="M785 915.3m-16 0a16 16 0 1 0 32 0 16 16 0 1 0-32 0Z" fill="#ffffff" p-id="13778"></path><path d="M856 751.3H649c-5.5 0-10-4.5-10-10s4.5-10 10-10h207c5.5 0 10 4.5 10 10s-4.5 10-10 10z m0-130H649c-5.5 0-10-4.5-10-10s4.5-10 10-10h207c5.5 0 10 4.5 10 10s-4.5 10-10 10z" fill="#ffffff" p-id="13779"></path></svg>