<?xml version="1.0" standalone="no"?><!DOCTYPE svg PUBLIC "-//W3C//DTD SVG 1.1//EN" "http://www.w3.org/Graphics/SVG/1.1/DTD/svg11.dtd"><svg t="1567145666581" class="icon" viewBox="0 0 1024 1024" version="1.1" xmlns="http://www.w3.org/2000/svg" p-id="2542" xmlns:xlink="http://www.w3.org/1999/xlink" width="24" height="24"><defs><style type="text/css"></style></defs><path d="M904.916 386.149h-783.466c-26.176 0-44.878 25.232-41.814 55.963l62.38 375.745c2.217 22.23 21.735 40.060 43.621 40.060h655.091c21.887 0 41.407-17.829 43.621-40.060l62.38-375.745c3.065-30.731-15.639-55.963-41.813-55.963v0zM820.19 251.082h-376.713l-61.905-81.279h-173.701c-26.177 0-47.392 21.219-47.392 47.394v68.674h705.402c-5.522-20.058-23.881-34.793-45.691-34.793v0zM908.829 364.225l2.271-20.628h-795.837l2.271 20.628h791.297zM892.281 325.778l2.96-21.405h-764.121l2.96 21.405h758.199z" p-id="2543" fill="#ffffff"></path></svg>