<?xml version="1.0" standalone="no"?><!DOCTYPE svg PUBLIC "-//W3C//DTD SVG 1.1//EN" "http://www.w3.org/Graphics/SVG/1.1/DTD/svg11.dtd"><svg t="1567067442905" class="icon" viewBox="0 0 1024 1024" version="1.1" xmlns="http://www.w3.org/2000/svg" p-id="10971" xmlns:xlink="http://www.w3.org/1999/xlink" width="24" height="24"><defs><style type="text/css"></style></defs><path d="M838.953125 179.71354167V125.22135417H566.4921875L130.5546875 615.65104167l272.4609375 272.4609375 39.96831665-40.70566406L484.75390625 888.11197917l408.69140625-463.18359375V179.71354167h-54.4921875zM403.015625 849.57748821L168.68218994 615.65104167 577.76696167 152.46744792H811.70703125v233.93666382l-368.7673645 422.29742432-19.31066895 19.3498352L403.015625 849.57748821z m463.18359375-435.92728272L484.75390625 849.57748821l-22.44737548-21.54144288L838.953125 397.68229167V206.95963542h27.24609375v206.69057007z" p-id="10972" fill="#ffffff"></path><path d="M675.4765625 343.19010417c30.04733276 0 54.4921875-24.44485474 54.4921875-54.4921875s-24.44485474-54.4921875-54.4921875-54.4921875-54.4921875 24.44485474-54.4921875 54.4921875 24.44485474 54.4921875 54.4921875 54.4921875z m0-81.73828125c15.04665527 0 27.24609375 12.1977356 27.24609375 27.24609375s-12.19943848 27.24609375-27.24609375 27.24609375-27.24609375-12.1977356-27.24609375-27.24609375 12.19943848-27.24609375 27.24609375-27.24609375z" p-id="10973" fill="#ffffff"></path></svg>